<?xml version="1.0" encoding="utf-8"?>
<!-- Generator: Adobe Illustrator 25.2.0, SVG Export Plug-In . SVG Version: 6.00 Build 0)  -->
<svg version="1.1" id="Layer_1" xmlns="http://www.w3.org/2000/svg" xmlns:xlink="http://www.w3.org/1999/xlink" x="0px" y="0px"
	 viewBox="0 0 1920 1080" style="enable-background:new 0 0 1920 1080;" xml:space="preserve">
<style type="text/css">
	.st0{fill:#542D8B;}
	.st1{fill:#F37476;}
</style>
<g>
	<path class="st0" d="M1163.6,854.2H724.9c-52.4,0-94.9-42.5-94.9-94.9V320.6c0-52.4,42.5-94.9,94.9-94.9h438.7
		c52.4,0,94.9,42.5,94.9,94.9v438.7C1258.5,811.8,1216,854.2,1163.6,854.2z"/>
	<g>
		<path class="st1" d="M783.6,648c-14.2,0-27-2.8-39.1-7.8s-22.7-12.1-31.2-20.6c-9.2-8.5-15.6-18.5-21.3-30.6
			c-5-11.4-7.8-24.2-7.8-37.7s2.8-26.3,7.8-37.7c5-11.4,12.1-22,21.3-30.6c9.2-8.5,19.2-15.6,31.2-20.6c12.1-5,24.9-7.1,39.1-7.1
			c10.7,0,20.6,1.4,30.5,4.3c9.2,2.8,18.5,7.1,26.3,12.1s14.9,11.4,20.6,18.5c5.7,7.1,10.7,14.9,14.2,23.5l-40.5,16.4
			c-4.3-10-11.4-17.8-19.9-23.5c-9.2-5.7-19.2-8.5-31.3-8.5c-7.8,0-15.6,1.4-22.7,4.3c-7.1,2.8-12.8,6.4-17.8,11.4
			c-5,5-9.2,10.7-12.1,17.1c-2.8,6.4-4.3,13.5-4.3,21.3c0,7.1,1.4,14.2,4.3,21.3c2.8,6.4,7.1,12.1,12.1,17.1s11.4,8.5,18.5,11.4
			c7.1,2.8,14.2,4.3,22.7,4.3c12.1,0,22.7-2.8,32-9.2c8.5-6.4,15.6-14.2,19.9-24.2l39.8,15.6c-3.6,8.5-8.5,16.4-14.2,23.5
			s-12.8,13.5-20.6,18.5s-16.3,9.2-26.3,12.1C805,646.6,794.3,648,783.6,648z"/>
		<path class="st1" d="M985.4,648c-14.9,0-28.4-2.1-41.2-7.1c-12.1-5-22.7-11.4-32-20.6c-8.5-8.5-15.6-18.5-20.6-30.6
			c-5-11.4-7.1-24.2-7.1-37.7s2.8-26.3,7.8-37.7c5-12.1,12.1-22,21.3-30.6c9.2-8.5,19.2-15.6,31.3-20.6s24.9-7.8,39.1-7.8
			c14.2,0,27,2.1,39.1,7.1c12.1,4.3,22.7,11.4,31.3,19.2c8.5,8.5,15.6,17.8,20.6,29.2c5,11.4,7.1,23.5,7.1,37v15.6H926.4
			c2.8,13.5,9.9,24.2,19.9,32.7c9.9,8.5,23.4,12.1,39.1,12.1c12.1,0,23.4-2.8,32.7-9.2c9.2-6.4,16.3-14.2,20.6-24.2l36.2,20.6
			c-8.5,15.6-19.9,27.7-34.8,37.7C1025.1,643,1006.7,648,985.4,648z M983.9,495.1c-13.5,0-24.9,2.8-34.8,8.5
			c-9.9,5.7-16.3,13.5-20.6,23.5h108.7c-3.6-10.7-9.2-18.5-19.2-24.2C1008.8,497.9,997.4,495.1,983.9,495.1z"/>
		<path class="st1" d="M1087,457.4h32.7v-29.2l44.7-30.6v59.7h39.1v39.8h-39.1v71.8c0,8.5,0.7,14.9,1.4,19.9c0.7,5,2.8,9.2,5.7,12.1
			c2.8,2.8,6.4,4.3,12.1,5.7c5,0.7,12.1,1.4,20.6,1.4v41.3h-6.4c-14.9,0-27-1.4-36.9-4.3c-9.9-2.8-17.8-7.1-23.4-13.5
			c-5.7-6.4-9.9-14.2-12.8-24.9c-2.8-10-3.6-22.8-3.6-38.4v-71.1H1087L1087,457.4L1087,457.4z"/>
	</g>
</g>
</svg>
