<?xml version="1.0" encoding="utf-8"?>
<!-- Generator: Adobe Illustrator 25.2.0, SVG Export Plug-In . SVG Version: 6.00 Build 0)  -->
<svg version="1.1" id="Layer_1" xmlns="http://www.w3.org/2000/svg" xmlns:xlink="http://www.w3.org/1999/xlink" x="0px" y="0px"
	 viewBox="0 0 1920 1080" style="enable-background:new 0 0 1920 1080;" xml:space="preserve">
<style type="text/css">
	.st0{fill:#542D8B;}
	.st1{fill:#F37476;}
</style>
<path class="st0" d="M916.3,263.5c-135.3,0-245,109.7-245,245s109.7,245,245,245s245-109.7,245-245S1051.6,263.5,916.3,263.5z
	 M1041.5,516.2c-4.2,8.2-10.9,14.4-17.3,20.8c-23.5,23.4-46.9,46.9-70.3,70.4c-10.8,10.8-27.5,11.6-38.3,1.6
	c-11-10.2-11.5-27.5-0.8-38.7c9.3-9.7,19-19.1,28.5-28.6c1.7-1.7,3.3-3.4,5.3-5.6c-2.8-1.5-5.5-0.9-7.9-0.9
	c-40.9-0.1-81.7,0-122.6-0.1c-12.1,0-21.5-6.6-25.5-17.6c-3.8-10.4-0.9-21.9,7.8-29.4c5.5-4.8,11.9-6.6,19.3-6.6
	c41.6,0.2,83.1,0.2,124.7,0.3c1.2,0,2.3-0.1,3.6-0.2c0.2-2.8-2.1-3.8-3.5-5.2c-9.8-9.9-19.9-19.5-29.4-29.7
	c-10.7-11.4-10.3-27.9,0.4-38.2c10.8-10.4,27.2-10.3,38.2,0.7c26.4,26.2,56.3,49.4,79.1,78.9c4.2,5.4,6.1,8.9,8.7,13.7
	C1043.8,508.4,1042.6,513.3,1041.5,516.2z"/>
</svg>
