<?xml version="1.0" encoding="utf-8"?>
<!-- Generator: Adobe Illustrator 25.2.0, SVG Export Plug-In . SVG Version: 6.00 Build 0)  -->
<svg version="1.1" id="Layer_1" xmlns="http://www.w3.org/2000/svg" xmlns:xlink="http://www.w3.org/1999/xlink" x="0px" y="0px"
	 viewBox="0 0 1920 1080" style="enable-background:new 0 0 1920 1080;" xml:space="preserve">
<style type="text/css">
	.st0{fill:#542D8B;}
	.st1{fill:#F37476;}
</style>
<g>
	<path class="st0" d="M953.8,409.3c-11.1-11-27.5-11.1-38.2-0.7c-10.7,10.3-11.1,26.8-0.4,38.2c9.5,10.2,19.6,19.8,29.4,29.7
		c1.4,1.4,3.7,2.3,3.5,5.2c-1.2,0.1-2.4,0.2-3.6,0.2c-41.6-0.1-83.1,0-124.7-0.3c-7.3,0-13.8,1.8-19.3,6.6
		c-8.6,7.5-11.6,19-7.8,29.4c4,11,13.4,17.6,25.5,17.6c40.9,0.1,81.7,0,122.6,0.1c2.4,0,5.1-0.7,7.9,0.9c-2,2.1-3.6,3.9-5.3,5.6
		c-9.5,9.5-19.2,18.8-28.5,28.6c-10.7,11.3-10.2,28.5,0.8,38.7c10.8,10,27.5,9.3,38.3-1.6c23.4-23.5,46.8-46.9,70.3-70.4
		c6.4-6.4,13.1-12.6,17.3-20.8c2-5.3,2.4-9.3,0-14.4c-2.6-4.8-4.9-8.8-8.7-13.7C1009.7,458.9,980.2,435.5,953.8,409.3z"/>
	<path class="st0" d="M916.3,263.5c-135.3,0-245,109.7-245,245s109.7,245,245,245s245-109.7,245-245S1051.6,263.5,916.3,263.5z
		 M916.3,736.7c-126,0-228.2-102.2-228.2-228.2s102.2-228.2,228.2-228.2s228.2,102.2,228.2,228.2S1042.4,736.7,916.3,736.7z"/>
</g>
</svg>
